<svg id="Layer_1" data-name="Layer 1" xmlns="http://www.w3.org/2000/svg" viewBox="0 0 3000 3000"><defs><style>.cls-1{fill:#563564;}.cls-2{fill:#fefefe;}</style></defs><path class="cls-1" d="M2668.67,1666c-9.57-22.78-14.16-47.91-31.19-67.27-3.13-3.56-3.33-8.58-4.43-13.14-11.51-48.84,14.25-90.59,34.85-131.77,15.82-17.51,15.89-56.14,1.77-75.22-14.41-19.47-32.79-34.12-53.09-46.58-14.56-8.94-25.89-21-30.67-37-9.72-32.34-19.28-64.83-23.68-98.49a30.54,30.54,0,0,1,3.65-18.13c10.14-19.23,19.48-39.12,31.8-56.9,33-49.83-.7-114.25-52.95-130.91-60.8-13.15-105.13-61-137.92-111.23-25.62-42.09,20.33-84.8,17-128.8-1.54-27.69-13.68-51.9-36.72-64.27-72.06-41.83-115.19,67.42-178.46,31.89-39.07-24.83-74.91-53.9-114.09-78.61-13.51-7.44-25.5-17.7-37.92-27.05-12.26-9.22-14-16.79-7.44-30.28,30.59-45,55.62-99.14,4.74-140.24-35.72-29.58-79.42-3.17-112.53,17.73-40.8,28.34-49.18-23.88-91.79-21.93-33.48.24-60.1,20.15-87.08,36.86a60,60,0,0,1-37.93,12.89c-45.57-2.92-96.28-5.18-87.59-65.37,5.31-59.92-38-153.44-110-124-38.92,28.48-62.41,76.78-58.78,125.17,2.48,26.16-3,55.92-33.35,61-47.37,7.12-94.79,14.15-142.44,19.66-20.27,3.48-33.3-5.44-42.41-21.35-58.8-97.13-130-81.62-165.32,19.85-12.25,41-63,5.73-79.83-12.33-30.74-28.87-87.13-41.07-125-25.38-70.87,30.39-64.63,122-25.11,176.51,37.44,46.18-16.45,78.71-45.24,108-10,8.89-20,19.19-34.4,20.87C686,782.3,676.32,721.23,565.9,732.33c-46.74,4.33-62-8.53-99.64-33-44.63-22-46.28-78.81-80-111.44-14.91-15.6-29.32-32.58-55.21-28.31-36.1,4.6-56.53,10.44-78.29,42.6C196.91,660.41,265.13,734,330.58,709.54c54.94-28.11,133.4,16,144.67,75.44,7.62,52.38,42,105.71,94.21,121.73,13.42,2,26.77,4.32,40.07,7,11,2.19,17.17,10.61,15.73,21.81-24.49,83.83-70.34,160-94.32,244.5-19.69,61.55-26.24,126.56-39.66,189.19-13.5,70-26.45,139.47-33.85,210.43-6.83,44.43-63,57.38-99.65,58.24-46.37,1.49-142.36,4.47-179.8-21.32-12.39-10.82-27.4-18.24-39.39-28.7-17.41-15.17-37-17.14-57.55-17.71-15.39-.43-29.12,6.49-39.75,16.79-57.29,54,7.3,138.43,74.43,133.77,79.3,3.3,85-47,148.31-37.08,29.81,8,100.81,10.34,66.58,57-15.87,20.49-30.39,57-19.47,81.91,13.33,26.38,29.14,50.24,61.37,59.71,108.43,31.72,121.33-43,180.4,96.2,25.92,71.48-74.45,43.8-93,150.86-15.41,73.59,74,99.93,126.14,66.37,26.34-14.5,53.17-35.54,81.21-10.34,17,17.75,88.54,79.38,82.16,100.58-8.62,26.2-9.4,53.28-11.26,80.49-3.38,49.53,51.29,94.23,101.39,73.38,14.63-6.1,30.2-10,45.5-14.44,9-2.59,18.91-2.81,24,6.48,7.09,12.92,12,26.43,10.56,42.27-8.66,51.2,9.21,121.47,72.15,121.18,37.44,0,62.23-36.42,78.26-66.08,8.14-16.42,18.22-22,36.61-20.67,58.77,5.27,113.88,29.43,170,46.26,12.57,4.2,23.59,10.44,24.83,26,5.83,37.83,11.15,84.15,47.76,105.08,27.81,14.26,53.08,7.26,77.64-9,10.55-7,16.79-18.45,27.78-24.68,53.62-27.38,67.2,40.46,110.3,51.24,29.3,10.16,58.42.94,74.25-26.59,13.55-18.08,26.11-36.3,27.88-60.23,1-13.8,7.62-28.42,19.09-34.6,14.45-7.8,30.64-15.2,48.59-13.29,5.85.63,11.44-1.14,17-3.17,28.37-11.76,47,3.53,64,26.15,9.32,11.75,20.31,21.84,33.68,28.29,9.13,4.41,15.73,14.05,25.83,14.84,12,1,24.42,1.61,35.89-5.44,13.85-8.52,28.92-15.09,36.38-31.13,5.66-12.15,5.88-12.1-7.81-14.37-10.78-.69-15.26-11.5-13.19-20.73.77-5.39,5.46-6.51,9.9-5.56,9.69,1.49,13.6,9.79,12.21,19.26,0,3-1.14,6.67,2.83,7.91,3.64,1.13,5.64-1.74,7.42-4.35,4-5.86,6.11-12.4,8.09-19.23,12.25-42.2,24.88-48,66.53-46.15,39.7-.85,86.3,17.44,115.69-17.87,5.23-5.2,10.06-12.54-2-17.9-6.34-2.83-7.75-9.83-5.13-16.28,3.75-9.38,15.3-6.13,23-5.31,8.53,1.65,12.06-2.51,13.43-10.41,2.54-14.65,4.93-29.58,2.48-44.15-4.22-25,6.31-44.06,22.26-61,25.87-30.1,55.7-55.87,83.87-84,23.29-17.67,55.86-63.58,87.92-53.22,41.63,14.93,83,50,127.75,22.18,5.51-3.41,10.94-6.67,13.09-12.54,2-5.52-5.17-5.71-7.47-9-3.45-5-6.34-10.12-3.86-16.23,6.26-11.94,33.65,4.51,35.87-12.82,14.69-67.87-70.18-102.65-46.72-163.32,21.9-46,39.94-94.82,82.28-126.6,24.74-16.48,7.75-19.88,21.37-31.69,2.31-2.57,5.12-4.71,7.39-7.31s5.33-5.51,2.66-9.19c-2.15-3-5.73-1.9-8.68-1-6.46,2-13.08,2.09-19.7,1.81-43.09-3.69,11.28-68.44,51.78-59.15,19.59,1.39,34.1-6.7,39.29-29.42,4.82-21.1,1.85-42.58,1.16-63.89C2671.18,1679.73,2671.27,1672.19,2668.67,1666Zm-2500.12,8.09c-5.27.55-22.85-.77-20.91-8.92,2.41-8.83,13.87-5.26,21.44-6.54,6.27,1.54,18.66-3.56,18.64,7.88C187.7,1675.62,175.69,1673,168.55,1674.08Zm39.17-1.68c-5.56.57-9.42-1.77-9.43-7.54,0-8,6.28-6,11.89-6.26,3.94.26,10.77-1.73,10.68,5.83C220.77,1672.48,213.4,1671.83,207.72,1672.4Z"/><path class="cls-2" d="M1038.12,1217.45c96.07,3.65,92.54-22.71,91.08,81.87,0,2.52-1.29,6,2.06,7.2,4,1.49,5.37-2.25,6.91-4.71,14.28-22.73,28.56-45.45,42.59-68.33,8-13.08,21.64-12.91,33.85-13.29,33.65-1,67.37-.1,101-.88,17.5-.4,24.39,5,24.47,22.56.35,78.63-1.23,157.24-1.88,235.85-.23,100.79-1,201.64,1.22,302.4.48,14.08-7.93,24-22.36,24.44-35.27,1.21-70.41-3.17-105.74-2.06-16.7-.31-20.75-4.53-21-20.82-1.54-99.68-2.94-199.35-2.68-299,0-3.39,1.24-8.32-2-9.78-4.75-2.16-5.78,3.88-8.5,6.23-6.34,5.5-9.55,13.22-13.71,20.22-56.13,93.9-112,187.93-166.72,282.68-3.45,5.84-5.41,16.42-14.88,13.43-8.57-2.71-6-12.09-6-19.45-2.44-98.7,2.8-201-1.71-298-3.4-1.32-5,1.57-6.39,3.74-34.12,54.39-66.09,110.13-100.54,164.31-127.71,195.79-22.63,148.77-258.14,158.15-33.08-2.62.91-42.34,11.38-53.6,117.62-171,230.49-345.82,345.55-518.78,15.35-23.62,48.33-12.07,72-14.67Z"/><path class="cls-2" d="M1609.21,1419c-.15,75.52-2.79,144.4-1.58,214,.67,25,4.58,28.59,30.33,27.45,18-3.34,38.62-.52,36.36,22.17-.91,33.08-1.86,66.13-.87,99.22.34,11.15-6.68,16.76-18.36,18.36-26.74,3.65-53.39-1.15-80.1,0-29,1.27-58.08,3.27-86.92,1.46-33.16-2.08-66,2.88-99.08.71-12.55-.82-16.06-3.82-16.11-16.23q-.18-50.17,0-100.36c0-13.55,5.1-19.48,18.7-20.4,14.73-1,29.56-1.14,44.33-.9,6.45.11,8.27-2.47,8.26-8.14.2-80.56,3-161.07,2-241.66,0-13.16-.76-26.36,0-39.47.56-10.24-4.13-12.94-13.14-12.76-21.77-1.81-62.86,9.52-60.13-24.38.56-30.71,1.06-61.42,2.11-92.11.66-19.42,7-23.4,26.44-22.89,53.21,1.59,106.35-.69,159.6-.38,139.37,4.52,116.84-35.86,119,106.7,3.2,36-40.34,24.76-63.31,29.16-5.7,1.2-7.11,3.09-6.8,8.21C1611.14,1386.18,1609.69,1405.59,1609.21,1419Z"/><path class="cls-2" d="M2074.13,1778.58c0-26.78-.23-22-.27-33.06l-1.68-107.66c-1.21-129.77-3.79-259.53-6.53-389.27-.17-19.59,5.33-24.63,25.16-24.4,34.21.39,68.41.81,102.62,1,40.63-3.58,35,21.31,35.21,53.45-1.5,121.77,1.64,243.55,4,365.23-.29,8.94,2.93,11,11.45,11.11q69.9.6,139.78,2.37c15.54.39,21.92,8.7,20.81,24.3-2.07,29-.81,58.12.23,87.13.93,26.11-5,32.11-30.94,32-82.46.09-188.88-.58-247-.58S2074.13,1805.36,2074.13,1778.58Z"/><path class="cls-2" d="M1912.23,1799.85c-20.92.86-42.33,3.77-54.1-14.93-56.45-88-119.38-171.7-171.77-262.23-4.11-6.74-3.28-13.14,1.32-19.55,26.29-36.67,53.67-72.63,78.16-110.47,32.31-53.55,75.28-100.3,105.53-154.82,4-9.52,11-14,20.79-14.15,38.92-1.43,77.86,1,116.75.14,14.65.87,18.71,8.83,10.38,21-57.72,85-111.53,172.63-165.94,259.8-5.73,9.09-5.59,16.8.66,25.7,57.56,83,114.32,166.61,171.57,249.85,9.53,8.78,2.26,20.29-9.88,19.75l-14,0Z"/></svg>